<?xml version="1.0" standalone="no"?>
<!DOCTYPE svg PUBLIC "-//W3C//DTD SVG 20010904//EN"
 "http://www.w3.org/TR/2001/REC-SVG-20010904/DTD/svg10.dtd">
<svg version="1.0" xmlns="http://www.w3.org/2000/svg"
 width="908.000000pt" height="901.000000pt" viewBox="0 0 908.000000 901.000000"
 preserveAspectRatio="xMidYMid meet">

<g transform="translate(0.000000,901.000000) scale(0.100000,-0.100000)"
fill="#000000" stroke="none">
<path d="M0 4505 c0 -2997 3 -4505 10 -4505 7 0 10 1508 10 4505 0 2997 -3
4505 -10 4505 -7 0 -10 -1508 -10 -4505z"/>
<path d="M5646 8224 c-3 -8 -6 -777 -6 -1708 l0 -1693 -97 -94 c-172 -166
-335 -275 -527 -353 -377 -153 -745 -133 -1136 64 -141 71 -421 276 -450 330
-7 13 -10 577 -10 1722 0 937 0 1709 0 1716 0 10 -81 12 -387 10 l-388 -3 0
-1070 c0 -2314 8 -6322 13 -6353 4 -31 6 -33 36 -26 248 52 487 507 610 1164
97 512 131 915 151 1760 3 135 9 246 14 248 5 2 21 -7 37 -20 179 -143 475
-278 754 -345 130 -31 376 -42 515 -24 286 38 570 172 807 381 35 31 63 49 68
44 5 -5 11 -84 12 -174 l3 -165 405 0 405 0 0 2300 0 2300 -411 3 c-369 2
-412 1 -418 -14z"/>
<path d="M4025 2680 c-131 -35 -226 -87 -328 -180 -172 -158 -257 -361 -257
-613 0 -137 18 -226 71 -354 110 -264 365 -457 634 -482 167 -15 354 32 503
126 103 65 202 176 202 227 0 39 -32 73 -76 82 -28 5 -38 -1 -110 -73 -80 -80
-163 -135 -259 -170 -39 -14 -80 -18 -185 -18 -120 0 -142 3 -195 24 -78 32
-127 62 -198 124 -95 82 -171 212 -201 344 -21 95 -21 284 0 367 56 219 211
375 429 431 75 19 281 20 350 1 79 -21 164 -69 239 -135 70 -62 97 -72 137
-51 10 6 26 24 34 41 15 28 14 32 -6 67 -51 89 -231 204 -379 242 -102 27
-306 27 -405 0z"/>
<path d="M5175 2645 l-25 -24 0 -760 0 -760 26 -20 c32 -25 64 -27 104 -6 17
9 31 17 32 18 1 1 4 124 7 272 l6 270 195 3 c283 4 263 10 367 -111 49 -55
113 -128 143 -162 30 -33 86 -96 125 -140 141 -161 161 -178 197 -171 59 12
90 64 66 110 -7 13 -40 55 -73 92 -33 37 -120 135 -192 217 -73 82 -133 155
-133 162 0 6 28 19 63 29 121 34 229 111 283 202 87 148 90 355 7 517 -48 95
-170 202 -273 240 -117 43 -161 47 -538 47 l-363 0 -24 -25z m816 -162 c110
-41 196 -116 240 -209 30 -66 33 -219 5 -276 -29 -60 -90 -122 -147 -150 -109
-52 -167 -59 -479 -56 l-285 3 -3 345 c-1 190 0 351 3 358 4 12 59 13 308 10
274 -4 307 -7 358 -25z"/>
</g>
</svg>
